<?xml version="1.0"?>
<svg xmlns="http://www.w3.org/2000/svg" xmlns:xlink="http://www.w3.org/1999/xlink" width="343.214" height="151.085">
<path fill="#231F20" d="M45.522,113.979H31.125l1.507-6.785c0.163-0.56,0.214-1.216,0.198-1.888
	c-0.094-3.253-3.199-3.666-5.263-3.666c-3.695,0-4.749,1.627-5.405,3.416l-6.656,29.652c-0.208,0.959-0.46,2.023-0.433,2.996
	c0.082,2.857,3.543,3.171,4.904,3.171c3.945,0,5.258-2.413,5.67-3.565c0.995-2.805,1.69-6.142,2.336-9.246h15.35l-1.96,8.327
	c-2.481,10.349-6.281,14.526-21.882,14.526c-4.06,0-7.765-0.274-10.982-1.432c-3.164-1.139-8.33-4.004-8.506-9.992
	c-0.01-0.924-0.079-2.69,1.184-8.096l5.357-24.311c1.736-7.9,4.098-10.834,6.739-12.624c4.128-2.835,11.265-3.352,15.214-3.352
	c3.874,0,8.763,0.517,11.926,1.72c3.113,1.209,6.958,3.75,7.182,9.937c0.015,1.239-0.094,2.632-0.417,4.095L45.522,113.979z"/>
<path fill="#231F20" d="M168.854,134.708c-0.746,3.779-1.552,7.62-4.123,10.809c-3.535,4.24-9.679,5.568-15.71,5.568
	c-4.138,0-17.597-0.834-18.05-11.717c-0.234-5.695,4.352-23.002,4.525-23.436c3.268-10.047,12.43-10.783,19.085-10.783
	c10.249,0,16.894,4.096,17.177,11.133c0.104,2.117-0.346,4.248-0.904,6.197h-13.875c0.56-2.215,1.079-4.332,1.054-5.566
	c-0.077-1.697-1.379-2.935-3.726-2.935c-3.963,0-4.915,2.611-5.614,5.714l-3.741,17.482c-0.079,0.488-0.138,0.964-0.11,1.542
	c0.041,1.224,0.417,1.829,0.598,1.965c0.677,0.916,1.96,1.486,3.4,1.486c4.039,0,4.627-2.944,5.528-7.46H168.854z"/>
<path fill="#231F20" d="M239.797,136.149c-0.58,2.423-1.352,6.134-5.225,6.134c-1.713,0-3.711-0.721-3.797-3.189
	c-0.011-0.924,0.285-2.55,0.523-3.545l3.604-16.367c0.504-2.266,1.274-5.645,5.069-5.645c2.606,0,3.828,1.564,3.895,3.54
	c0.015,0.74-0.146,1.382-0.275,2.104L239.797,136.149z M245.603,110.447c-2.044-4.561-7.818-5.65-10.897-5.65
	c-9.789,0-12.095,6.693-13.703,12.436c-0.517,1.382-5.042,19.983-4.902,24.33c0.268,7.986,8.033,8.898,10.542,8.898
	c6.208,0,9.422-3.787,11.425-6.045l-1.277,5.322h14.512l12.863-57.778h-14.533L245.603,110.447z"/>
<path fill="#231F20" d="M277.746,122.843c1.148-6.37,1.69-9.305,6.083-9.305c0.886,0,2.524,0.178,3.451,1.153
	c0.563,0.577,0.761,1.407,0.794,2.22c0.046,1.121-0.783,4.545-1.063,5.932H277.746z M284.346,135.541
	c-0.875,3.731-1.328,6.292-5.352,6.292c-1.909,0-3.357-0.683-4.034-1.675c-0.168-0.359-0.298-0.886-0.298-1.275
	c-0.046-1.881,0.735-5.535,1.371-8.08h23.028c0.781-3.632,1.397-6.598,2.03-9.745c0.393-1.909,0.69-3.744,0.627-5.563
	c-0.313-9.684-11.598-10.694-17.367-10.694c-13.115,0-16.742,5.556-18.233,9.073c-1.438,3.236-5.535,19.35-5.337,25.17
	c0.152,4.66,2.123,6.953,4.237,8.439c4.343,2.98,11.076,3.362,13.517,3.362c8.471,0,13.141-2.253,15.943-5.237
	c2.863-2.963,3.758-6.793,4.561-10.066H284.346z"/>
<path fill="#231F20" d="M81.062,149.738l6.698-30.284c0.392-1.632,0.682-3.263,0.631-4.909c-0.239-7.679-8.857-9.549-17.148-9.549
	c-5.093,0-9.679,0.732-13,2.287c-4.327,2.06-5.322,4.586-7.157,12.171h13.721c1.219-4.37,1.871-6.376,5.945-6.376
	c1.56,0,3.909,0.164,3.968,2.467c0.041,0.646-0.517,3.423-0.914,5.133c-16.772,4.432-21.068,5.604-23.923,8.705
	c-2.881,3.084-4.52,10.773-4.441,13.498c0.257,7.961,8.809,7.961,9.806,7.961c5.638,0,9.625-3.206,12.812-5.744l-1.123,4.641H81.062
	z M63.435,142.413c-2.428,0-3.212-1.263-3.258-2.741c-0.015-0.83,0.463-5.505,2.762-7.23c1.685-1.193,5.828-2.372,9.076-3.263
	l-2.675,10.572C67.833,140.98,65.972,142.413,63.435,142.413"/>
<path fill="#231F20" d="M207.35,149.738l6.725-30.284c0.402-1.632,0.707-3.263,0.652-4.909c-0.25-7.679-8.857-9.549-17.16-9.549
	c-5.077,0-9.668,0.732-12.979,2.287c-4.357,2.06-5.342,4.586-7.162,12.171h13.692c1.247-4.37,1.909-6.376,5.958-6.376
	c1.56,0,3.908,0.164,3.973,2.467c0.025,0.646-0.512,3.423-0.908,5.133c-16.768,4.432-21.068,5.604-23.939,8.705
	c-2.878,3.084-4.51,10.773-4.441,13.498c0.272,7.961,8.813,7.961,9.813,7.961c5.645,0,9.638-3.206,12.817-5.744l-1.13,4.641H207.35z
	 M189.784,142.413c-2.456,0-3.217-1.263-3.278-2.741c-0.016-0.83,0.458-5.505,2.771-7.23c1.695-1.193,5.818-2.372,9.035-3.263
	l-2.654,10.572C194.162,140.98,192.329,142.413,189.784,142.413"/>
<path fill="#231F20" d="M129.141,119.739c0.333-1.474,0.646-2.939,0.605-4.503c-0.214-6.678-7.622-10.05-17.072-10.05
	c-7.829,0-13.916,2.217-16.38,6.475c-1.018,1.845-2.257,5.571-2.191,8.108c0.109,3.316,2.191,5.725,5.584,8.021
	c0.224,0.184,8.022,5.183,9.407,6.227c1.089,0.807,1.845,1.468,1.914,3.094c0.031,1.153-0.277,3.352-1.955,4.416
	c-0.949,0.583-2.127,0.583-2.576,0.583c-1.532,0-3.626-0.512-3.685-2.8c-0.041-1.255,0.303-2.637,0.685-3.767H89.601
	c-0.438,1.489-0.787,2.976-0.756,4.825c0.145,4.248,2.298,6.854,6.948,8.753c1.382,0.567,4.383,1.72,11.216,1.72
	c8.459,0,13.349-2.534,15.611-5.187c2.334-2.654,3.431-7.579,3.367-10.241c-0.155-4.709-3.306-6.673-9.534-10.508
	c-0.563-0.413-5.055-3.182-5.149-3.291c-1.845-1.199-2.845-2.031-2.899-3.559c0-0.152-0.125-4.227,4.177-4.227
	c3.517,0,3.657,2.104,3.677,2.438c0.028,0.846-0.458,2.654-0.708,3.472H129.141z"/>
<path fill="#231F20" d="M342.623,119.739c0.323-1.474,0.626-2.939,0.588-4.503c-0.225-6.678-7.615-10.05-17.075-10.05
	c-7.834,0-13.911,2.217-16.372,6.475c-1.021,1.845-2.255,5.571-2.179,8.108c0.099,3.316,2.179,5.725,5.584,8.021
	c0.224,0.184,8.021,5.183,9.401,6.227c1.095,0.807,1.845,1.468,1.898,3.094c0.036,1.153-0.268,3.352-1.924,4.416
	c-0.954,0.583-2.138,0.583-2.596,0.583c-1.527,0-3.611-0.512-3.681-2.8c-0.046-1.255,0.288-2.637,0.672-3.767h-13.878
	c-0.407,1.489-0.81,2.976-0.726,4.825c0.13,4.248,2.268,6.854,6.923,8.753c1.379,0.567,4.377,1.72,11.231,1.72
	c8.449,0,13.323-2.534,15.591-5.187c2.349-2.654,3.456-7.579,3.377-10.241c-0.178-4.709-3.293-6.673-9.519-10.508
	c-0.563-0.413-5.064-3.182-5.163-3.291c-1.836-1.199-2.849-2.031-2.904-3.559c0-0.152-0.125-4.227,4.179-4.227
	c3.505,0,3.686,2.104,3.686,2.438c0.028,0.846-0.469,2.654-0.697,3.472H342.623z"/>
<path fill="#00543D" d="M249.385,77.122c-13.499-5.989-18.332-15.517-22.127-22.778l-20.406-39.123
	c-8.058-15.622-18.441-15.22-24.092-15.22h-64.532c-18.816,0-23.794,16.502-23.794,25.723c0,15.703,8.246,34.631,40.042,35.145
	c0.563-0.016,0.598-0.318,0.12-0.509c-17.586-7.679-26.24-24.285-26.24-37.878c0-9.717,4.66-19.078,12.985-19.078
	c8.595,0,13.092,7.152,15.5,11.817l20.419,39.123c2.932,5.568,12.712,23.315,28.217,23.315h63.789
	C249.797,77.659,249.807,77.294,249.385,77.122"/>
<path fill="#00543D" d="M124.654,21.028c-2.856,0-5.296,2.538-5.296,6.704c0,4.721,2.825,9.516,8.694,9.516
	c0,0-3.591-2.418-3.591-7.48c0-4.886,4.103-5.915,5.808-5.105C130.268,24.663,128.369,21.028,124.654,21.028"/>
</svg>
