<svg xmlns="http://www.w3.org/2000/svg" viewBox="0 0 180 34.42"><path fill="#0a7dff" d="M32.76 23.07a10.3 10.3 0 01-7.36 0A9.32 9.32 0 0122.26 21 9.55 9.55 0 0120 17.23a16.71 16.71 0 01-.83-5.55A14.73 14.73 0 0120 6.57a10 10 0 012.24-3.69A10 10 0 0125.42.73a9.54 9.54 0 017.32 0 10 10 0 013.16 2.15 10 10 0 012.24 3.69 15 15 0 01.86 5.11 17 17 0 01-.83 5.55A9.55 9.55 0 0135.9 21a9.32 9.32 0 01-3.14 2.07zm-7.52-5.29a4.8 4.8 0 007.68 0q1.5-1.9 1.5-6.14A9 9 0 0032.87 6a4.68 4.68 0 00-7.6 0 9 9 0 00-1.53 5.66q0 4.19 1.5 6.12zM68.39 23.27V.49H82.8v4.07h-10v5.1h9.11v3.91h-9.13v5.63h10v4.07zM107.51 23.27V.49h4.39V19.2h9.4v4.07zM124.35 23.27V.49h14.42v4.07h-10v5.1h9.11v3.91h-9.11v5.63h10v4.07zM0 30.77h180v3.65H0zM59.64.49l-6.42 14.77h-.45L46.34.49h-4.52v22.78h4.33v-14l6.02 14h1.65l6.02-14v14h4.33V.49h-4.53zM175.61.49v15.16a4 4 0 01-1.06 3 4.16 4.16 0 01-3.11 1.09 4.16 4.16 0 01-3.11-1.09 4 4 0 01-1.06-3V.49h-4.39v15.36a7.34 7.34 0 002.33 5.87 9.09 9.09 0 006.23 2 9.12 9.12 0 006.24-2 7.37 7.37 0 002.32-5.87V.49zM14.9 2.46a8.08 8.08 0 00-5.66-2H0v22.81h4.39V15h4.85A8.08 8.08 0 0015 13a6.87 6.87 0 002.1-5.28 6.73 6.73 0 00-2.2-5.26zM11.71 10a3.13 3.13 0 01-2.53 1H4.39V4.56h4.79a3.13 3.13 0 012.53 1 2.92 2.92 0 01.82 2.22 3 3 0 01-.82 2.22zM102 13a6.87 6.87 0 002.1-5.28 6.77 6.77 0 00-2.1-5.26 8.08 8.08 0 00-5.66-2h-9.29v22.81h4.39V15h3.41l4.5 8.3h4.75l-4.76-8.73A6.93 6.93 0 00102 13zm-10.61-2.1V4.56h4.79a3.14 3.14 0 012.53 1 3 3 0 01.81 2.22 3 3 0 01-.81 2.22 3.16 3.16 0 01-2.53 1h-4.79zM155.49 23.27v-6h-9.24v6h-3.92V10.32l7.24-9.83h2.61l7.22 9.83v13zM151.1 5.65h-.47l-4.38 5.71v2.22h9.24v-2.22z"></path></svg>
